<svg id="pug" xmlns="http://www.w3.org/2000/svg" viewBox="0 0 160 168"><style>.st0{fill:#fff}</style><path class="st0" d="M103.7 97.4C97.8 91.6 92 85.7 86.1 79.9c-.3-.3-.8-.5-1.2-.5h-9.7c-.4 0-1 .2-1.3.6-5.9 5.7-11.7 11.5-17.4 17.3-.4.4-.6 1-.6 1.5-.1 3.8-.1 7.5 0 11.3 0 .5.3 1.1.6 1.5 2.4 2.4 4.8 4.8 7.2 7.3.5.5.9 1.1 1.3 1.6 5.2-4.5 10.1-8.8 15-13.1 5 4.4 9.9 8.7 14.8 13 .2-.1.3-.2.4-.3 2.9-2.8 5.7-5.7 8.5-8.6.3-.3.4-.8.4-1.2V98.7c.1-.4-.1-1-.4-1.3zM89.3 90c0 .3-.1.6-.3.8-1.1 1.2-2.2 2.3-3.2 3.4l-1.9-1.9 1.7-1.7c-.6-.6-1.2-1.1-1.8-1.7-1.2.8-1.8 1.8-1.9 3.5 0 1.7.8 2.6 1.8 3.5-1.3 1.2-2.5 2.4-3.6 3.6l-3.6-3.6c2-1 1.9-3.1 1.6-5-.1-.8-1-1.4-1.7-2.2l-1.9 1.9c.6.6 1.1 1.2 1.7 1.8l-1.9 1.9c-1.1-1.1-2.3-2.2-3.3-3.4-.3-.3-.2-.9-.3-1.3-.3-1.9.5-3.2 1.8-4.6 1.3-1.3 2.6-1.9 4.5-1.8 2.6.2 5.2 0 7.7.1.5 0 1 .3 1.5.6.4.3.6.7 1 1 2.1 1.1 2.4 3 2.1 5.1zm39-25.8c-1.8-4.7-3.5-9.4-5.3-14.1-.1-.3-.4-.6-.7-.6-6.6-1.8-13.2-3.6-20-5.5 5 7.5 9.9 14.9 14.9 22.4 1.3-1.9 2.5-3.8 3.7-5.6 2.5 1.2 4.9 2.4 7.3 3.6 0-.1.1-.2.1-.2zM56.6 44.3c-6.2 1.7-12.3 3.4-18.5 5-.6.2-1 .5-1.2 1.1-1.6 4.4-3.3 8.8-4.9 13.2-.1.2-.1.5-.2.8 2.5-1.3 4.9-2.4 7.4-3.7 1.2 1.8 2.4 3.6 3.7 5.5 5-7.4 9.8-14.7 14.8-22.2-.6.2-.9.2-1.1.3zm13.7 37.3c.2-.2.3-.7.3-1.1-.2-1.6-.5-3.2-.8-4.8-.3-1.9-.6-3.8-1-5.7-5.5 1.2-10.9 2.4-16.3 3.6-.3.1-.6.4-.8.7-1.6 2.7-3.3 5.4-4.9 8.1-.2.3-.1.9.1 1.1 2.8 4 5.7 8 8.5 11.9.1.2.3.3.4.5.1-.1.2-.1.3-.2 4.8-4.6 9.5-9.3 14.2-14.1zm-18.2.5c0-3.6 2.9-6.5 6.5-6.5 3.7 0 6.6 2.8 6.6 6.5s-2.8 6.5-6.5 6.5c-3.7.1-6.6-2.8-6.6-6.5zm56.2-7.6c-.2-.4-.7-.7-1.2-.8-3.3-.8-6.7-1.5-10.1-2.3-2-.4-3.9-.9-5.9-1.3-.1.4-.1.7-.2 1-.5 3.1-1 6.2-1.6 9.3-.1.7 0 1.1.5 1.5 4.5 4.5 9.1 9 13.6 13.6.2.2.4.4.7.6.1-.1.2-.2.3-.2 2.9-4.1 5.9-8.2 8.7-12.3.2-.2.1-.8 0-1.1-1.5-2.7-3.1-5.4-4.8-8zm-6.9 14.2c-3.6 0-6.5-2.8-6.5-6.4 0-3.7 2.8-6.6 6.5-6.6s6.5 2.8 6.5 6.5c0 3.6-2.8 6.5-6.5 6.5z"/><path class="st0" d="M68.8 118.4c1.2 1.8 2.3 3.5 3.5 5.2.2.2.6.4.9.4h13.7c.3 0 .7-.2.8-.4 1.2-1.7 2.3-3.4 3.5-5.2-3.7-3.1-7.4-6.2-11.2-9.3-3.8 3.1-7.4 6.2-11.2 9.3z"/></svg>