<svg id="sass" xmlns="http://www.w3.org/2000/svg" viewBox="0 0 160 168"><style>.st0{fill:#222}</style><path class="st0" d="M80 44c22.1 0 40 17.9 40 40s-17.9 40-40 40-40-17.9-40-40 17.9-40 40-40zm-7.9 53.3c.6 2.2.5 4.2-.1 6l-.2.6-.3.6c-.5 1-1.1 1.9-1.8 2.7-2.3 2.5-5.6 3.5-7 2.7-1.5-.9-.8-4.5 2-7.3 2.9-3.1 7.1-5 7.1-5-.1-.1.3-.3.3-.3zm33-36.2c-1.8-7.1-13.6-9.5-24.7-5.5-6.6 2.4-13.8 6.1-19 10.9-6.1 5.7-7.1 10.7-6.7 12.8 1.4 7.4 11.5 12.2 15.7 15.8-1.2.6-10.2 5.1-12.3 9.7-2.2 4.9.4 8.4 2.1 8.8 5.2 1.5 10.7-1.2 13.6-5.5 2.8-4.2 2.5-9.6 1.3-12.2 1.6-.4 3.6-.7 6.1-.3 7 .8 8.4 5.2 8.1 7s-1.8 2.8-2.2 3.2-.7.4-.6.6c.1.3.3.3.7.2.6-.1 3.7-1.5 3.8-4.9.2-4.3-3.9-9.1-11.2-9-3 .1-4.9.3-6.2.9-.1-.2-.2-.2-.3-.3-4.5-4.9-12.9-8.2-12.5-14.7.1-2.3 1-8.5 16-16 12.3-6.1 22.2-4.5 23.9-.7 2.4 5.3-5.2 15.3-18.1 16.8-4.9.6-7.5-1.3-8.1-2.1-.7-.8-.8-.8-1.1-.6-.4.2-.2.8 0 1.2.4 1 1.9 2.8 4.7 3.6 2.3.8 8.1 1.2 15-1.5 7.8-3 13.8-11.3 12.1-18.3l-.1.1z"/></svg>