<svg id="gulp" xmlns="http://www.w3.org/2000/svg" viewBox="0 0 160 168"><style>.st0{fill:#fff}</style><path class="st0" d="M93.7 106.2l2.8-4.7s-6.3 2.6-16.7 2.6-16.6-2.5-16.6-2.5l3.1 5.1 1.1 16.2c0 1.8 5.7 3.1 12.7 3.1 7 0 12.7-1.4 12.7-3.1l.9-16.7zm2.6-30.5c-3.3.2-5 3.9-6.7 7.8-.6 1.4-2.7 7.5-4.1 6.8-1.4-.8 1.8-5.8 2.7-8.7-1 .8-4.8 3.7-5.8.9-1.6 1.4-4.9 2.1-4.5-1.4-.8 1.5-2.7 3.6-4.9 2.7-2.9-1.1 1.7-10.4 2.9-10 1.2.5-.2 2.6-.6 3.4-.8 1.8-1.7 4.2-1.1 4.6 1 .8 3.9-3 4-3.1.5-.7 2.1-5.3 3.3-4.8 1.2.6-3.1 6.7-1.5 7.9.3.3 1.7-.1 2.5-1 .5-.5.3-1.8 2.1-6s3.3-9.3 4.5-9 .2 3-.2 4.1c-2 4.7-5.5 12.3-3.9 11.7 1.6-.6 2.5-.6 4.1-2.5s1.5-5 2.6-4.9c1 .1.9 1.1.6 1.8 1-1.2 5-3.8 5.9-1.2 1.1 3-5.6 7.3-4 7.1 1.6-.2 4.3-1.9 5.5-3.4l3.1-28.2s-3.2 2.6-23.2 2.6-22.9-2.5-22.9-2.5L59.4 76c1.4-4 4.8-12.2 10.1-11.9 2.4.1 5.6 4.8 2.9 4.9-1.2.1-1.3-2.3-2.7-2.7-1-.2-2.4.6-3.3 1.5-1.8 1.8-5.6 8.7-5.1 12.1.6 4.4 6.1-1.5 7-3.2.6-1.2 1.1-4.9 2.5-4.5 1.4.4-.1 4.2-1.2 7.5-1.2 3.8-1.8 7.7-3.2 7.3-1.4-.5.9-5.3.8-6.2-1.4 1.3-3.8 4.4-7.1 2.9l1.6 16s4.4 3.4 17.6 3.4 17.8-3.4 17.8-3.4l2.1-18.6c-1.7 1.7-7 4.6-7.3 1.3-.3-2.7 5.8-6.5 4.2-6.6l.2-.1zm6.9-50.8L91.6 37l-2.1 8.2c8.1.5 13.8 1.7 13.8 3 0 1.8-10.5 3.3-23.4 3.3S56.5 50 56.5 48.2s10.5-3.3 23.4-3.3c1.8 0 3.7 0 5.5.1l2.4-9.9 12.2-13c.3-.4 1.2-.1 2.1.6.8.6 1.3 1.5 1 1.9l.1.3zM86.6 50s-2.3 0-2.6-.4c-.1-.1-.2-.2-.2-.4s.2-.4.4-.5l.2.3c-.1 0-.1.1-.1.1 0 .2 1.4.3 2.4.3s2.3-.1 2.3-.3c0-.1-.1-.1-.3-.1l.2-.3c.3.1.5.2.5.5 0 .5-.6.6-1 .6-.5.2-1.8.2-1.8.2z"/></svg>