<svg id="Mailchimp" xmlns="http://www.w3.org/2000/svg" viewBox="0 0 160 168"><style>path{fill:#222}</style><path d="M75.8 55.9c.2-.1.3-.3.5-.4l.8-.6-5.8-4.9.3 2.1 4.2 3.8z"/><path d="M117.9 96.1c-.5-1.2-1.5-2-2.9-2.3-.4-2-1-3-1.1-3.1.2-.3.5-.5.5-.6 1.9-2.3.7-5.7-2.5-6.5-1.8-1.7-3.4-2.5-4.7-3.2-1.3-.6-.8-.3-2-.9-.3-1.5-.4-5.2-.9-7.7-.5-2.2-1.4-3.9-2.8-5-.6-1.2-1.3-2.5-2.3-3.3 4.4-6.8 5.6-13.5 2.3-17-1.4-1.7-3.6-2.5-6.1-2.5-3.6 0-8.1 1.5-12.6 4.2l-3-2.4C67.3 36 31.9 79.5 44.4 89l3.2 2.5c-2 5.6.8 12.4 6.7 14.5 1.2.5 2.7.7 4.2.6 0 0 9.4 17.4 29.4 17.4 23.1 0 29-22.6 29.1-22.8 0 0 1.9-2.8.9-5.1zm-72.5-10c-2.5-4.3 1.9-13.1 5-18.1C58.2 55.7 71.1 46 77 47.4l1.6-.6 4.4 3.7c3-1.8 6.9-3.7 10.5-4-2.2.5-4.9 1.6-8.1 3.6-.1 0-7.5 5.1-12 9.6C70.9 62.1 61 74 61 74c1.8-3.4 3-5.1 5.9-8.7 1.7-2.1 3.4-4 5.2-5.9l2.5-2.5c.3-.2.6-.5.8-.7-1.1.7-3.7 2.6-5.1 3.8-7.6 6.2-14.9 16-17.6 25.5h.1c-1.4.8-2.7 2-3.9 3.6-.1 0-3.1-2.2-3.5-3zM57.7 104c-4.5 0-8.1-3.8-8.1-8.5s3.6-8.5 8.1-8.5c1.2 0 2.3.2 3.2.7 0 0 1.7.9 2.2 5 .5-1.3.8-2.3.8-2.3.6 1.8.9 3.6.8 5.5.5-.6 1-1.8 1-1.8.9 5.1-2.9 9.9-8 9.9zm10-30.1l-.1-.2c.4-.5.7-.9 1.1-1.4 1.5-2.2 4.8-6.3 10.1-9.4-.6-.1-2 .1-2.2.1 1.4-1.2 4-2 5.8-2.3-.5-.3-1.8-.4-2.4-.4h-.4c1.7-1 4.8-1.5 7.6-1-.4-.5-1.2-.9-1.8-1l-.2-.1h.2c1.7-.3 3.7 0 5.2.7-.2-.5-.6-.9-.9-1.2l-.2-.2c1.6.4 3.2 1 4.4 1.9l-.8-1.2c1.5.5 3.3 1.5 4.1 3.2v.1c-3-2.3-11.7-1.6-20.4 4-3.4 2.1-6 4.5-8.1 6.9l-1 1.5zm46.7 26.6c-.1.2-1.2 6.1-7.5 11.1-7.9 6.2-18.3 5.6-22.2 2.1-2.1-2-3-4.8-3-4.8s-.2 1.6-.3 2.2c-1.6-2.7-1.5-6-1.5-6s-.8 1.5-1.2 2.4c-1.1-3-.5-6-.5-6l-.9 1.4s-.5-3.4.6-6.2c1.2-3 3.3-5.2 3.8-5.5-1.7-.5-3.6-2-3.6-2s.8 0 1.3-.1c0 0-3.3-2.4-4-6.1.5.6 1.5 1.2 1.5 1.2-.3-1-.5-3.2-.2-5.2.6-4 3.9-6.7 7.8-6.7 4 0 6.7.9 10.1-2.2.7-.6 1.2-1.2 2.2-1.4.1 0 .4-.1.9-.1s1.1.1 1.5.4c1.8 1.1 2.2 4 2.5 6 .7 7.8.4 6.3 3.5 8 1.5.8 3.2 1.4 5.1 3.5 1.6 0 2.4 1.3 1.7 2.2-5.4 6.4-13 9.5-21.3 9.8h-1.1c-3.4.1-4.5 4.5-2.3 7.1 1.3 1.7 4 2.2 6.1 2.2 9.2.2 18.5-6.3 20.1-9.9l.1-.2c-.3.4-9.3 8.8-20.2 8.5 0 0-1.2 0-2.3-.3-1.5-.4-2.6-1-3-2.5.9.2 2 .3 3.4.3 7.8 0 13.5-3.6 13-3.7h-.1c-.9.2-10.3 3.9-16.3 2 0-.2 0-.4.1-.5.5-1.8 1.5-1.5 3-1.6l-.3.4c5.5-.2 9.8-1.6 13.2-3.1 3.5-1.7 6.1-3.8 7.1-4.9 1.2 2.1 1.2 4.8 1.2 4.8s.5-.2 1.1-.2c2-.1 2.5 1.7.9 3.6z"/><path d="M59.8 94.4c-.2-.1-.2-.2-.3-.4-.1-.3 0-.5.2-.7.2-.1.4-.2.4-.3 0-.1-.2-.2-.4-.2l.1-.1c-.2 0-.6.1-.8.4-.4.5-.5 1.3.1 2.1.8.8 1.9 1 2 2v.5c0 .2-.1.4-.1.5-.2.8-1 1.7-2.2 1.7h-1c-.1.2.5.9 1.7.9h.1c1.7 0 3.1-1.8 2.8-3.7-.3-1.8-2-2.2-2.6-2.7z"/><path d="M58.1 91.3c1.3 0 2.2.6 2.7 1.3.4.6.2 1 .5 1.1l.1.1h.1c.2-.1.3-.5.4-.8 0-.6-.3-1.4-.8-1.9-.6-.7-1.5-1.2-2.6-1.4h-.8c-.7 0-1.2.1-1.4.2-.1 0-.3.1-.5.1-2.5 1-3.7 3.5-3.1 6 .1.6.4 1.3.8 1.7.2.3.5.4.6.4.2 0 .3-.2.2-.5 0-.1-.4-.7-.5-1.8 0-1.1.2-2.3.9-3.2.5-.6 1.2-.9 1.2-1l.3-.2h.1c.3-.1.1-.1.5-.1h.1c.3-.1.6-.1.9-.1h.3zm31.2-5.9h.5c.2 0 .3 0 .3-.1.1-.2-.8-.9-2-.9l-.2.1c-.2 0-.4 0-.6.1l-.5.1h-.2c-.4.2-.8.4-1 .7-.4.4-.5.8-.4.8h.1c.1 0 .3-.1.7-.2 1.1-.4 1.9-.5 2.7-.5.1-.1.3-.1.6-.1zm6.8.3c.3.1.5.2.8.2.4 0 .7-.1.8-.4.3-.5-.1-1.1-.7-1.5-.3-.1-.5-.2-.8-.2-.4 0-.7.2-.8.4-.3.5 0 1.2.7 1.5zm3.4-2.4c-.1.7.2 1.2.7 1.3l.1.1c.5 0 .8-.4.9-1 .1-.6-.2-1.2-.7-1.3h-.1l.1-.1c-.5 0-.9.4-1 1zm-13-.7c.8 0 1.6.2 2.5.6.5.2 1 .4 1.2.4h.1c.1-.1.1-.3-.1-.5-.5-.6-1.3-1.2-2.1-1.5-.6-.2-1.2-.3-1.8-.3l.1-.1c-1.2 0-2.5.5-3.5 1.2-.8.6-1 1.2-.8 1.3h.1c.2 0 .6-.1 1.2-.3 1.3-.6 2.2-.8 3.1-.8zm11.3-2.5c.9-.1 1.8.1 2.6.5-.1-2.2-1.3-4.7-2.3-4.3-.6.2-.7 1.2-.6 1.8-.1.7 0 1.3.3 2zM78.5 53.5c.3-.3.8-.6 1.2-.9h.1l-3.7-1.1 2.4 2zm3.1-2.2l-1.8-1.5.6 2.2c.4-.1.8-.4 1.2-.7zm-4.9-1.1l1.1.3-.8-3.1-.6 1.5z"/></svg>