<svg xmlns="http://www.w3.org/2000/svg" xmlns:xlink="http://www.w3.org/1999/xlink" viewBox="0 0 365 250"><path fill="none" d="M-777.5-415h1920V665h-1920z"/><path fill="#011EFF" d="M43 41.3c-.9 0-1.7-.8-1.7-1.7s.8-1.7 1.7-1.7 1.7.8 1.7 1.7-.8 1.7-1.7 1.7zm0-2.5c-.4 0-.8.4-.8.8s.4.8.8.8.8-.4.8-.8-.4-.8-.8-.8zm21.3 56.7h-1.7v-1.7c0-.4-.3-.8-.8-.8-.4 0-.8.3-.8.8v1.7h-1.7c-.4 0-.8.3-.8.8 0 .4.3.8.8.8H61v1.7c0 .4.3.8.8.8.4 0 .8-.3.8-.8V97h1.7c.4 0 .8-.3.8-.8 0-.4-.4-.7-.8-.7zm-9-28.2h-1v-1c0-.2-.2-.4-.4-.4s-.4.2-.4.4v1h-1c-.2 0-.4.2-.4.4s.2.4.4.4h1v1c0 .2.2.4.4.4s.4-.2.4-.4v-1h1c.2 0 .4-.2.4-.4s-.1-.4-.4-.4zm18.1-12.4c-.7 0-1.3-.6-1.3-1.3s.6-1.3 1.3-1.3c.7 0 1.3.6 1.3 1.3-.1.7-.6 1.3-1.3 1.3zm0-1.9c-.3 0-.6.3-.6.6s.3.6.6.6.6-.3.6-.6-.3-.6-.6-.6z"/><defs><circle id="a" cx="29.6" cy="185.3" r="46.2"/></defs><clipPath id="b"><use xlink:href="#a" overflow="visible"/></clipPath><g clip-path="url(#b)" fill="#EFF0F1"><path d="M-24.238 164.998l105.68-18.574.294 1.675-105.68 18.573zm-.599-3.301l105.68-18.574.294 1.674-105.68 18.574zm.499-3.6l105.68-18.574.294 1.675-105.68 18.573zm-.702-3.198l105.68-18.574.295 1.674-105.68 18.574zm-.199-3.499l105.68-18.574.294 1.674-105.68 18.574zm-.599-3.302l105.68-18.573.294 1.674-105.68 18.574zm2.298 44.099l105.68-18.574.294 1.674-105.68 18.574zm-.598-3.199l105.68-18.574.294 1.675-105.68 18.573zm.499-3.6l105.68-18.573.294 1.674-105.68 18.574zm-.599-3.301l105.68-18.574.294 1.674-105.68 18.574zm-.199-3.499l105.68-18.574.294 1.674-105.68 18.574zm-.702-3.198l105.68-18.574.294 1.674-105.68 18.574zm.602-3.704l105.68-18.573.294 1.674-105.68 18.574zm-.701-3.198l105.68-18.573.294 1.674-105.68 18.574zm2.199 51.101l105.68-18.574.294 1.675-105.68 18.573zm-.599-3.302l105.68-18.573.294 1.674-105.68 18.574zm.499-3.6l105.68-18.573.294 1.674-105.68 18.574zm-.598-3.198l105.68-18.574.294 1.675-105.68 18.573zm-.2-3.602l105.68-18.574.294 1.675-105.68 18.573zm-.702-3.198l105.68-18.574.294 1.674-105.68 18.574zm.499-3.599l105.68-18.575.295 1.675-105.68 18.573zm-.598-3.303l105.68-18.573.294 1.674-105.68 18.574zm2.401 44.201l105.68-18.573.294 1.674-105.68 18.574zm-.702-3.301l105.68-18.573.294 1.674-105.68 18.574zm-.199-3.499l105.68-18.573.294 1.674-105.68 18.574zm-.599-3.301l105.68-18.574.294 1.674-105.68 18.574zm.499-3.6l105.68-18.574.294 1.675-105.68 18.573zm-.702-3.198l105.68-18.574.295 1.675-105.68 18.573z"/></g></svg>