<svg xmlns="http://www.w3.org/2000/svg" viewBox="0 0 83.96 52.88"><circle cx="79.76" cy="30.94" r="4.2" fill="#dbfb3c"/><path d="M46.36,1a10.93,10.93,0,0,0-1.5-.8,1.85,1.85,0,0,0-.7-.2,2.45,2.45,0,0,0-2.3.9,23.91,23.91,0,0,1-2.3,2.2c-1.6,1.4-3,3-4.5,4.5-.9.9-1.7,1.8-2.6,2.7l-3.2,3.2c-.6.6-1,1.3-1.6,1.9-1.6,1.8-3,3.7-4.4,5.6a22,22,0,0,1-1.4,1.8.85.85,0,0,1-.3-1.1,2.08,2.08,0,0,0,.1-1.1c-.1-1.1-.3-2.3-.3-3.4.1-2.3.2-4.7.4-7a5,5,0,0,0-.7-3.6,2,2,0,0,1-.4-.8c-.2-.8-.8-1.1-1.5-1.4a3.71,3.71,0,0,0-1.4-.4,8.55,8.55,0,0,0-1.6,0c-.5,0-.7.4-.9.8-.1.2-.3.3-.4.4a8.7,8.7,0,0,0-.9,1.1A22.45,22.45,0,0,1,12.66,9c-.8,1.5-1.5,3-2.3,4.5a19.83,19.83,0,0,1-1.1,2c-.1.2-.2.3-.3.5-.5,1.8-1.6,3.4-2.3,5.2a65,65,0,0,0-2.5,6.1c-.1.2-.1.5-.2.7-.8.8-.5,2-1.2,2.9-.2,1.4-.9,2.5-1.2,3.9-.2,1.1-.6,2.2-.8,3.3-.1.3,0,.6-.1.8a15.86,15.86,0,0,0-.6,5.7,7.71,7.71,0,0,0,2.8,5.8l.7.7A6.48,6.48,0,0,0,7,52.84c1.1.2,1.8-.5,1.8-1.7v-.4a1.48,1.48,0,0,0,0-1.3.66.66,0,0,0-.9.3,2.37,2.37,0,0,1-1.5.9c-.1-.1-.2-.3-.3-.4A6.85,6.85,0,0,1,5,46.84a8.53,8.53,0,0,1,0-1.6,18.1,18.1,0,0,0,.3-2.3,9.63,9.63,0,0,1,.4-3.4,46.4,46.4,0,0,1,1.6-5.3c.4-1.1.8-2.2,1.2-3.4a.6.6,0,0,0,.1-.4,5,5,0,0,1,.3-1.3l.3-.6c.4-.9.8-1.9,1.2-2.8a8.79,8.79,0,0,0,.6-1c.9-1.8,1.7-3.6,2.6-5.3.6-1.2,1.2-2.3,1.8-3.5a22.86,22.86,0,0,1,1.5-2.4v.6a26.59,26.59,0,0,0,.8,6.9c.4,1.3,1,2.5,1.5,3.8a5.63,5.63,0,0,0,.7,1.8,9.34,9.34,0,0,0,2.7,2.1,2.13,2.13,0,0,0,1.1-1.4,2.65,2.65,0,0,1,1.4-1.7,4.92,4.92,0,0,0,1.5-1.4c.9-1.3,1.5-2.7,2.5-3.9a40.81,40.81,0,0,0,2.5-3.3,10.14,10.14,0,0,0,.9-1.3,7.35,7.35,0,0,1,1.6-1.9c.3-.3.7-.5.7-1,.6-.1.8-.6,1.1-1,.1-.1.2-.1.5-.2a5.82,5.82,0,0,1-.5,1.1,11.08,11.08,0,0,0-.9,1.9c-.1.2-.2.5-.3.7-.4.9-1.2,1.6-1.3,2.6a4.18,4.18,0,0,1-.4,1c-.4.8-.9,1.6-1.3,2.5-.7,1.8-1.3,3.7-1.9,5.6a19.68,19.68,0,0,0-.6,3.5,4.3,4.3,0,0,0,.8,3.1c.5.7,1,1.3,1.5,2a1.32,1.32,0,0,0,.9.7,3.38,3.38,0,0,1,1.1.7,3.47,3.47,0,0,0,4,.3c.5-.4.7-.6.5-1.1a1.15,1.15,0,0,1,.1-1c.1-.1-.1-.5-.2-.6-.3-.2-.6-.3-.9,0a4.07,4.07,0,0,1-2.4.8,3.51,3.51,0,0,1-.5-2,12.7,12.7,0,0,1,.5-3.4,45.23,45.23,0,0,1,2.1-6.2c1.3-1.8,1.5-4.1,2.7-6a12.75,12.75,0,0,0,.7-1.2,26.39,26.39,0,0,1,1.5-2.9c.5-.9.9-1.8,1.4-2.7,1-1.6,1.8-3.3,2.9-4.9a7.49,7.49,0,0,1,1.5-2,.52.52,0,0,0,.2-.4A2.93,2.93,0,0,0,46.36,1Zm-41,34.3a19.06,19.06,0,0,0-1,3.4,16.88,16.88,0,0,1-.8,2.4v.4a1,1,0,0,0,.1.4c-.4.6-.2,1.3-.4,2a9.7,9.7,0,0,0-.1,1.7c0,.1.1.3,0,.4a4.48,4.48,0,0,0,.3,3c0,.1,0,.2-.2.3-.1-.2-.2-.5-.3-.7a10.34,10.34,0,0,1-.3-4.3,19.7,19.7,0,0,0,.4-3.4,9.61,9.61,0,0,1,.8-2.9c.2-.5.3-1,.5-1.5v-.1l1.2-3c.1,0,.2,0,.2.1A5.84,5.84,0,0,1,5.36,35.34Zm.6-2.1c-.2-1.3.7-2.1,1-3.3.1,0,.1,0,.2.1C6.76,31,6.36,32.14,6,33.24Zm4.5-14.5c-.6.5-.6,1.4-1,2a21.4,21.4,0,0,0-1,2.2c-.3.7-.7,1.5-1,2.2-.1.3-.2.5-.3.8a1.8,1.8,0,0,1-.4.9,1.5,1.5,0,0,0-.4,1.1,5.22,5.22,0,0,1-.7,2.1c-.6,1.2-.8,2.4-1.3,3.6a10.8,10.8,0,0,0-1,3.5c0,.2-.1.3-.2.5a1.42,1.42,0,0,0-.2.6,11.7,11.7,0,0,0-.5,2c-.2,1-.4,2.1-.5,3.1a17.85,17.85,0,0,0-.2,2.3c0,.2.1.5,0,.7s-.1.3-.2.6a8.14,8.14,0,0,1-.5-5.5,14.6,14.6,0,0,0,.3-2.2,1.27,1.27,0,0,1,.1-.6c.8-1.7,1.1-3.6,2-5.3a8.25,8.25,0,0,0,1-2.6c.2-1.5,1.4-2.7,1.5-4.2.8-.8.8-1.9,1.2-2.9a4.62,4.62,0,0,1,.9-1.5c.5-.4.4-1,.8-1.5s.5-1,.8-1.4.5-.7.7-1.1a.1.1,0,0,1,.1.1C10.46,18.34,10.56,18.64,10.46,18.74Zm26.5-9c.1,0,.1.1.2.1-.2.2-.3.4-.5.6C36.36,9.84,36.76,9.84,37,9.74Zm-5.1,21.7c-.1-.3-.2-.5-.1-.6s.2-.5.6-.2A1.77,1.77,0,0,1,31.86,31.44Zm.5-2.1a9.44,9.44,0,0,1,.3-.9C32.86,29,32.86,29,32.36,29.34Zm1.5-4.1c0,.2-.1.4-.1.6C33.56,25.54,33.56,25.44,33.86,25.24Zm0,0c0-.2.1-.4.1-.8C34.36,24.94,34.06,25,33.86,25.24Zm4.2-12.8c0,.4-.4.9-.6,1.4s-.7.8-.5,1.5c0,.1-.1.2-.2.3-.4.8-.8,1.7-1.2,2.5-.2.4-.4.7-.6,1.1s-.3.9-.5,1.4a.37.37,0,0,1-.1.3,12,12,0,0,0-1.8,3.8,4.88,4.88,0,0,1-.3.7,7.84,7.84,0,0,0-.9,2.1,11.66,11.66,0,0,1-1,2.6c-.1.1-.1.3,0,.3.3.5-.2.4-.4.6-.2-.6.2-1.1-.2-1.6.5-.8.4-1.8.7-2.6.7-1.9,1.3-3.8,2.1-5.6a47.86,47.86,0,0,1,3.5-7.2c.6-.9,1.1-1.8,1.7-2.7a.89.89,0,0,1,1-.4C38.26,11.44,38,11.84,38.06,12.44Z" fill="#fff"/><path d="M79.46,25.74a27.28,27.28,0,0,0-3.1,2.7c-2.1,2-4.4,3.6-7.5,3.6-1.5,0-1.9-.5-2-1.8-.1-1.7.7-3.2,1.3-4.8a10.63,10.63,0,0,0,.9,1.1,3.26,3.26,0,0,0,5.1-.3,17,17,0,0,0,2.8-5.1,20.94,20.94,0,0,1,.8-2.3c.2-.5.2-1.2,1.1-1.4s1-1.1.3-1.7a4.92,4.92,0,0,0-1.5-1,7.81,7.81,0,0,0-6,.3,17.26,17.26,0,0,0-5.6,4.8,12.75,12.75,0,0,0-2.9,5.8,4.87,4.87,0,0,0-.1,1.2,9.45,9.45,0,0,1-4.9,2.4c.2-.8.4-1.4.6-2a32.09,32.09,0,0,1,1.2-3.3c1.1-1.9,2.4-3.6,3.5-5.5.5-.8,1.2-1.7.6-2.5s-1.3-1.9-2.7-2a2.63,2.63,0,0,0-2.4.9c-.7.7-1.3,1.5-2,2.2a10.47,10.47,0,0,0-5.6-1.3,6.71,6.71,0,0,0-4.1,1.8,15.33,15.33,0,0,0-4.3,7.1,6.83,6.83,0,0,0,1.4,6.8c.9,1.1,2.3,1.3,3.4,2a.94.94,0,0,0,1.2-.5c.9-1.6,1.7-3.3,2.6-4.8,1.1-1.8,2.2-3.5,3.3-5.2a.35.35,0,0,1,.2.1c-.1.3-.1.6-.2.8a8.84,8.84,0,0,0-.4,4,6.34,6.34,0,0,0,2.1,3,7.1,7.1,0,0,0,1.4,1c1.3.8,2.6.3,3.8-.1.6-.2,1.4-.9,1.4-1.5a1.66,1.66,0,0,1,.5-1.2,12,12,0,0,0,1.3,2.1,8.75,8.75,0,0,0,2.1,2.2,10.49,10.49,0,0,0,2.8,1.4,4.92,4.92,0,0,0,4.1-.4c.2-.1.5-.4.5-.5-.1-.6.4-.4.6-.6.7-.6,1.6-1,2-1.7a28.22,28.22,0,0,1,1.8-2.9C79.36,27.84,80.06,27,79.46,25.74Zm-4-6.7c-1,2.3-1.9,4.5-4,5.8a2.56,2.56,0,0,1-2.9-.1A18.41,18.41,0,0,1,75.46,19Zm-28.8,12.7a2,2,0,0,1-.8-1.9,10.38,10.38,0,0,1,1.4-5.2,16.58,16.58,0,0,1,3.5-4.4,7.56,7.56,0,0,1,2.2-1.1c.6-.3,1.2-.4,1.8-.7a1.29,1.29,0,0,1,.7-.1A102.94,102.94,0,0,0,46.66,31.74Z" fill="#fff"/></svg>